<?xml version="1.0" standalone="no"?>
<!DOCTYPE svg PUBLIC "-//W3C//DTD SVG 1.1//EN" "http://www.w3.org/Graphics/SVG/1.1/DTD/svg11.dtd" >
<svg xmlns="http://www.w3.org/2000/svg">
<metadata>
This is a custom SVG webfont generated by Font Squirrel.
Copyright   : Copyright c 1992 Adobe Systems Incorporated  All Rights ReservedBoton is a trademark of H Berthold AG
Foundry     : Adobe Systems Incorporated
</metadata>
<defs>
<font id="PoetschRegular" horiz-adv-x="1067" >
<font-face units-per-em="2048" ascent="1638" descent="-410" />
<missing-glyph horiz-adv-x="598" />
<glyph unicode=" "  horiz-adv-x="598" />
<glyph unicode="&#x09;" horiz-adv-x="598" />
<glyph unicode="&#xa0;" horiz-adv-x="598" />
<glyph unicode="!" horiz-adv-x="598" d="M236 0v215h210v-215h-210zM236 1448h210l-16 -1077h-174z" />
<glyph unicode="&#x22;" horiz-adv-x="811" d="M125 1442q0 45 27.5 68.5t66.5 23.5q57 0 78 -45q8 -16 8 -55l-74 -523h-38l-66 496q-2 17 -2 35zM508 1442q0 45 28.5 68.5t65.5 23.5q57 0 78 -45q8 -16 8 -55l-72 -523h-41l-65 496q-2 17 -2 35z" />
<glyph unicode="#" horiz-adv-x="1366" d="M84 530v111h360l27 199h-342v116h356l66 494h129l-72 -494h207l66 494h120l-67 -494h344v-116h-358l-27 -199h344v-111h-356l-76 -530h-125l78 530h-207l-78 -530h-119l74 530h-344zM565 641h207l27 199h-205z" />
<glyph unicode="$" horiz-adv-x="1110" d="M96 0v489h152q37 -309 250 -368v561q-147 57 -211 98q-168 115 -168 312q0 188 139 301q90 74 238 86q0 39 -1 101t-3 99h149q-4 -190 -4 -223q133 -35 213 -164l4 156h139v-461h-151q-6 51 -14.5 86t-30 91.5t-63.5 98.5t-103 66v-516q84 -33 134 -56.5t119.5 -74.5 t104.5 -127t35 -178q0 -111 -50 -210t-165 -153q-70 -33 -176 -41q0 -78 6 -200h-152q6 129 7 213q-158 47 -248 174l-8 -160h-142zM276 1108q0 -55 15.5 -94t52.5 -69t65.5 -45t88.5 -42v488q-104 -14 -158 -72q-64 -64 -64 -166zM627 104q96 18 145 62q86 74 86 199 q0 63 -22.5 111t-65.5 80t-70.5 46t-72.5 33v-531z" />
<glyph unicode="%" horiz-adv-x="1792" d="M45 995q0 170 49 281q10 23 25.5 47.5t49.5 61t90 59t126 22.5q31 0 61.5 -5t84 -31.5t91 -72.5t67.5 -141.5t30 -222.5q0 -186 -62 -301q-88 -168 -278 -168q-162 0 -248 133q-86 125 -86 338zM162 1008q0 -115 24 -201q25 -92 78 -141.5t121 -49.5q55 0 100 33 q117 84 117 338q0 178 -58.5 282.5t-162.5 104.5q-82 0 -134 -62.5t-68.5 -138t-16.5 -165.5zM549 0l559 1446h117l-557 -1446h-119zM1067 453q0 170 49 282q10 23 25.5 47.5t49.5 61.5t91 59.5t127 22.5q31 0 61.5 -5.5t83 -32t90 -73.5t67.5 -141t30 -223q0 -184 -60 -301 q-90 -168 -278 -168q-158 0 -250 133q-86 125 -86 338zM1184 465q0 -115 24 -203q25 -90 78 -139t121 -49q59 0 100 32q117 78 117 338q0 180 -58.5 285t-162.5 105q-82 0 -134 -62.5t-68.5 -139.5t-16.5 -167z" />
<glyph unicode="&#x26;" horiz-adv-x="1409" d="M90 442q0 262 254 398q-111 166 -111 293q0 156 111 250t297 94q88 0 145 -19q90 -27 156 -97.5t66 -174.5q0 -96 -58 -168q-23 -31 -50.5 -56.5t-67 -47t-66.5 -34t-80 -34.5l-111 -49l334 -336l92 -86q37 90 48 266h163q-6 -152 -25.5 -224.5t-62.5 -156.5l281 -260 h-244l-137 133q-176 -156 -420 -156q-227 0 -370.5 134t-143.5 331zM260 455q0 -147 101.5 -246.5t259.5 -99.5q182 0 299 122l-271 269l-219 229q-170 -94 -170 -274zM399 1143q0 -90 90 -232q106 45 160 70q37 16 60.5 29.5t58.5 39t53.5 60.5t18.5 78q0 59 -41 104 q-55 55 -158 56q-100 0 -171 -49.5t-71 -155.5z" />
<glyph unicode="'" horiz-adv-x="425" d="M123 1442q0 45 28.5 68.5t65.5 23.5q57 0 78 -45q8 -16 8 -55l-72 -523h-41l-65 496q-2 17 -2 35z" />
<glyph unicode="(" horiz-adv-x="598" d="M168 543q0 274 53 553q35 193 115 385h149q-49 -164 -73 -324q-43 -283 -43 -567q0 -293 45 -615q20 -172 73 -370h-151q-168 457 -168 938z" />
<glyph unicode=")" horiz-adv-x="598" d="M109 -395q29 98 41 147q78 311 77 754q0 317 -57 698q-23 141 -61 275h151q72 -195 100 -330q68 -299 68 -608q0 -319 -72 -633q-35 -158 -96 -303h-151z" />
<glyph unicode="*" horiz-adv-x="811" d="M51 954l228 133l-228 125l62 119l221 -129v244h135v-248l225 135l68 -119l-223 -129l223 -120l-68 -123l-225 133v-254h-135v250l-211 -129z" />
<glyph unicode="+" horiz-adv-x="1366" d="M86 535v122h537v533h122v-533h535v-122h-535v-535h-122v535h-537z" />
<glyph unicode="," horiz-adv-x="512" d="M63 -219l113 422h256l-227 -422h-142z" />
<glyph unicode="-" horiz-adv-x="894" d="M70 502v162h753v-162h-753z" />
<glyph unicode="." horiz-adv-x="512" d="M145 0v217h220v-217h-220z" />
<glyph unicode="/" horiz-adv-x="768" d="M-12 -213l626 1878h160l-622 -1878h-164z" />
<glyph unicode="0" horiz-adv-x="1193" d="M59 727q0 262 74 434q47 106 116.5 174t135.5 99q96 45 211 45q20 0 66 -4q141 -16 241 -103q229 -190 230 -645q0 -276 -76 -444q-76 -174 -219 -254q-113 -61 -252 -62q-217 0 -359 164q-168 197 -168 596zM231 737q0 -178 33 -309q41 -162 129 -244t203 -82 q94 0 172 56q190 137 190 559q0 147 -24 264q-33 147 -114 253.5t-222 106.5q-113 0 -186 -61q-80 -63 -130.5 -203.5t-50.5 -339.5z" />
<glyph unicode="1" horiz-adv-x="1193" d="M352 1227v139l244 80h115v-1317h153v-129h-475v129h150v1163z" />
<glyph unicode="2" horiz-adv-x="1193" d="M102 0v129l304 342q131 145 217 252q111 131 158.5 216t47.5 163q0 98 -68.5 169.5t-195.5 71.5q-102 0 -174 -59q-74 -66 -96 -217h-164q10 70 18.5 107.5t40 100t80.5 105.5q113 98 301 99q193 0 306.5 -98.5t113.5 -270.5q0 -139 -88 -276q-117 -178 -608 -703h559 v266h160v-397h-912z" />
<glyph unicode="3" horiz-adv-x="1193" d="M68 393h176q4 -84 43 -149q88 -139 295 -140q143 0 220 83t77 206q0 127 -82 207q-43 39 -102.5 58.5t-104.5 22.5t-129 1v137q74 0 104.5 1t80.5 11.5t87 32.5q115 72 115 226q0 117 -78 184t-199 67q-260 0 -297 -256h-170q12 174 127 284t334 110q106 0 189.5 -23.5 t130.5 -64.5t77.5 -82t43 -90.5t15.5 -73t3 -45.5q0 -104 -56.5 -191.5t-160.5 -128.5q-49 -16 -76 -22q8 -2 23.5 -5t23.5 -5q127 -35 206 -127.5t79 -223.5q0 -193 -134 -310.5t-354 -117.5q-246 0 -382 131q-107 103 -125 293z" />
<glyph unicode="4" horiz-adv-x="1193" d="M72 403v132l518 917h264v-917h283v-132h-283v-274h150v-129h-476v129h158v274h-614zM244 535h442v647q0 51 2 75q0 29 4 82z" />
<glyph unicode="5" horiz-adv-x="1193" d="M119 395h176q14 -139 90 -215q80 -80 215 -80q139 0 215 90q82 88 82 254q0 168 -84 270.5t-217 102.5q-68 0 -126 -30.5t-80.5 -56t-53.5 -68.5l-166 24l61 760h775v-336h-152v207h-477l-41 -481q129 111 297 110q193 0 311.5 -130t118.5 -361q0 -205 -116 -346.5 t-357 -141.5q-209 0 -334 115q-117 104 -137 313z" />
<glyph unicode="6" horiz-adv-x="1193" d="M115 674q0 449 174 653q129 152 342 152q184 0 301 -103q96 -84 131 -260h-170q-10 63 -37 109.5t-56.5 70t-68.5 37t-60.5 15.5t-43.5 2q-100 0 -172 -60.5t-107 -158t-50 -184.5t-17 -175q41 45 70.5 72.5t111.5 62.5t180 35q227 0 345 -141.5t118 -327.5 q0 -131 -45 -233.5t-120 -158.5t-158 -85t-171 -29q-246 0 -374 176q-123 164 -123 531zM295 461q0 -156 93 -255.5t233 -99.5q133 0 226 95.5t93 251.5q0 170 -95 263t-224 93q-135 0 -230.5 -95t-95.5 -253z" />
<glyph unicode="7" horiz-adv-x="1193" d="M147 1081v365h891v-129l-397 -1188h154v-129h-480v129h154l395 1184h-565v-232h-152z" />
<glyph unicode="8" horiz-adv-x="1193" d="M94 379q0 68 25 139q45 119 164 187q59 33 157 51q-297 74 -297 336q0 205 156 309q115 80 303 80q197 0 326 -102.5t129 -286.5q0 -127 -68.5 -209t-187.5 -117q-25 -8 -39 -10q37 -10 49 -15q45 -10 70 -22q117 -49 166 -143.5t49 -190.5q0 -168 -113 -281 q-133 -137 -383 -137q-199 0 -326 78q-180 115 -180 334zM274 389q0 -123 83 -207t237 -84q143 0 230 82t87 213q0 137 -95 211t-224 74q-145 0 -231.5 -80t-86.5 -209zM313 1083q0 -131 84 -195.5t203 -64.5q131 0 209 69t78 187q0 129 -86 200t-199 71q-117 0 -203 -71 t-86 -196z" />
<glyph unicode="9" horiz-adv-x="1193" d="M82 393h176q4 -49 23 -98q35 -94 106.5 -145.5t169.5 -51.5q139 0 234 109q115 135 129 481q-145 -184 -373 -184q-188 0 -325.5 123t-137.5 356q0 209 131 352.5t360 143.5q66 0 138 -17q176 -45 268 -202q104 -174 104 -484q0 -807 -526 -807q-184 0 -303 82 q-151 106 -174 342zM250 989q0 -162 94 -254t225 -92q129 0 230.5 88t101.5 260q0 51 -15.5 105.5t-49 113t-102 96t-163.5 37.5q-150 0 -235.5 -105.5t-85.5 -248.5z" />
<glyph unicode=":" horiz-adv-x="598" d="M231 0v215h218v-215h-218zM231 852v215h218v-215h-218z" />
<glyph unicode=";" horiz-adv-x="598" d="M145 -219l113 422h258l-225 -422h-146zM258 854v213h215v-213h-215z" />
<glyph unicode="&#x3c;" horiz-adv-x="1366" d="M0 653v144l1366 655v-131l-1229 -596l1229 -600v-131z" />
<glyph unicode="=" horiz-adv-x="1366" d="M0 354v119h1366v-119h-1366zM0 715v121h1366v-121h-1366z" />
<glyph unicode="&#x3e;" horiz-adv-x="1366" d="M0 -6v131l1229 600l-1229 596v131l1366 -655v-144z" />
<glyph unicode="?" horiz-adv-x="980" d="M27 985q6 207 82 320q117 172 376 172q199 0 307.5 -101.5t108.5 -242.5q0 -84 -43 -179q-20 -41 -54 -86t-65 -78l-118 -133q-47 -51 -59.5 -81.5t-14.5 -90.5v-127h-170v115q0 82 19.5 130t99.5 138q141 160 188 233t47 156q0 94 -67.5 150.5t-161.5 56.5 q-100 0 -174 -47q-127 -84 -127 -305h-174zM354 0v211h213v-211h-213z" />
<glyph unicode="@" horiz-adv-x="1835" d="M141 498q0 174 67.5 347t182.5 308t285 220t358 85q299 0 478.5 -195.5t179.5 -474.5q0 -256 -134.5 -451.5t-297.5 -195.5q-102 0 -144 86q-20 43 -16 115q-31 -55 -66 -94q-98 -102 -219 -103q-109 0 -187.5 90.5t-78.5 260.5q0 229 138 404t308 175q98 0 166 -67 q33 -33 60 -105l26 115h121l-61 -277q-78 -362 -78 -422q0 -88 65 -88q100 0 206 170t106 383q0 254 -162 424t-412 170q-319 0 -532 -258q-102 -127 -159.5 -300t-57.5 -333q0 -291 181 -475t507 -184q391 0 667 285l50 -62q-94 -94 -175 -145q-242 -160 -559 -160 q-377 0 -595 207t-218 545zM696 444q0 -55 9 -88q29 -119 145 -118q129 0 217 165q49 90 78 210t29 190q0 92 -45.5 145t-112.5 53q-115 0 -193 -133q-127 -203 -127 -424z" />
<glyph unicode="A" horiz-adv-x="1280" d="M6 0v129h117l369 1188h-109v129h526v-129h-114l360 -1188h115v-129h-430v129h139l-98 330h-498l-94 -330h129v-129h-412zM422 584h428l-211 712z" />
<glyph unicode="B" horiz-adv-x="1193" d="M41 0v129h152v1188h-152v129h588q70 -2 105.5 -4t97 -20.5t104.5 -53.5q55 -45 88 -123t33 -166q0 -242 -211 -325q43 -12 74 -31q168 -98 167 -320q0 -150 -71 -249q-47 -70 -120 -105t-126 -41t-147 -8h-582zM365 129h208q170 0 232 37q45 29 76.5 91t31.5 146 q0 106 -57 179q-72 88 -248 92h-243v-545zM365 809h149q78 0 120 3t101.5 26.5t95.5 68.5q51 68 52 168q0 72 -31 127q-23 39 -53.5 64.5t-71.5 37t-65.5 14.5t-69.5 5h-227v-514z" />
<glyph unicode="C" horiz-adv-x="1193" d="M92 702q0 100 12 203q45 313 193 451q131 123 321 123q131 0 218.5 -48.5t124.5 -115.5l4 133h135v-459h-150q-14 94 -32 150q-33 94 -107 152.5t-174 58.5q-82 0 -137 -31q-125 -61 -185 -254q-47 -156 -47 -365q0 -238 68 -391q92 -207 291 -207q111 0 188 64 q115 90 135 317h164q-8 -78 -15 -122t-38 -118.5t-82 -131.5q-125 -137 -342 -138q-125 0 -221.5 41t-156.5 110t-98 165t-53.5 196t-15.5 217z" />
<glyph unicode="D" horiz-adv-x="1280" d="M37 0v129h151v1188h-151v129h524l87 -3q28 -1 83 -7t91 -19.5t83 -36t86 -58.5t72 -85q125 -182 125 -492q0 -88 -12 -174q-31 -229 -125 -362q-49 -70 -106.5 -115t-125 -63.5t-111.5 -23.5t-116 -7h-555zM358 129h148q14 0 41.5 1t42.5 1q141 4 223 59 q113 76 156 229.5t43 307.5q0 250 -84 399q-35 66 -80 106t-101.5 57.5t-92.5 21.5t-101 6h-195v-1188z" />
<glyph unicode="E" horiz-adv-x="1150" d="M41 0v129h149v1188h-149v129h993v-453h-153v324h-519v-479h469v-136h-469v-573h519v358h153v-487h-993z" />
<glyph unicode="F" horiz-adv-x="1024" d="M45 0v129h145v1188h-145v129h924v-453h-160v324h-447v-481h416v-140h-416v-567h152v-129h-469z" />
<glyph unicode="G" horiz-adv-x="1323" d="M94 702q0 254 72 437q127 338 483 338q90 0 165 -31t108.5 -61.5t76.5 -79.5l5 141h135v-465h-154q-18 129 -43 184q-82 174 -278 174q-61 0 -113 -18q-279 -102 -279 -604q0 -109 15 -197q33 -195 130 -301t238 -106q158 0 254 114q84 106 90 361h-344v133h502v-721 h-137l-4 143q-43 -49 -77 -78.5t-117 -61.5t-191 -32q-254 0 -395.5 200.5t-141.5 530.5z" />
<glyph unicode="H" horiz-adv-x="1323" d="M37 0v129h153v1188h-153v129h477v-129h-152v-483h594v483h-151v129h475v-129h-152v-1188h152v-129h-475v129h151v571h-594v-571h152v-129h-477z" />
<glyph unicode="I" horiz-adv-x="555" d="M37 0v129h151v1188h-151v129h477v-129h-154v-1188h154v-129h-477z" />
<glyph unicode="J" horiz-adv-x="811" d="M0 20v160q178 -74 270 -74q106 0 156 68q25 33 31 73t6 128v942h-154v129h477v-129h-151v-926q0 -82 -4 -129t-27.5 -109.5t-71.5 -103.5q-90 -76 -249 -76q-136 0 -283 47z" />
<glyph unicode="K" horiz-adv-x="1236" d="M39 0v129h151v1188h-151v129h475v-129h-154v-543l527 543h-144v129h457v-129h-106l-447 -455l449 -733h121v-129h-472v129h144l-361 616l-168 -163v-453h154v-129h-475z" />
<glyph unicode="L" horiz-adv-x="980" d="M41 0v129h152v1188h-152v129h475v-129h-154v-1188h431v360h153v-489h-905z" />
<glyph unicode="M" horiz-adv-x="1622" d="M41 0v129h152v1188h-152v129h414l352 -1239l348 1239h418v-129h-146v-1188h146v-129h-445v129h140v1188l-369 -1317h-184l-381 1317v-1188h121v-129h-414z" />
<glyph unicode="N" horiz-adv-x="1280" d="M41 0v129h149v1188h-149v129h428l473 -1305v1176h-147v129h456v-129h-153v-1317h-273l-479 1317v-1188h150v-129h-455z" />
<glyph unicode="O" horiz-adv-x="1280" d="M92 700q0 463 209 654q135 123 334 123q205 0 338 -119q213 -186 213 -617q0 -156 -29 -286q-45 -219 -164 -344q-131 -139 -356 -140q-348 0 -479 336q-66 164 -66 393zM264 709q0 -119 17 -211q31 -168 121 -277.5t235 -109.5q109 0 187.5 62.5t117.5 164.5t55.5 199.5 t16.5 197.5q0 260 -96.5 431t-272.5 171q-186 0 -283.5 -173.5t-97.5 -454.5z" />
<glyph unicode="P" horiz-adv-x="1110" d="M37 0v129h156v1188h-156v129h518q53 0 83 -2t84 -10.5t90 -24.5t78 -47t73 -76q76 -113 75 -274q0 -188 -104 -307q-51 -55 -122 -85t-118 -34t-131 -6h-198v-451h149v-129h-477zM365 709h149q61 0 95 3t89.5 19.5t85 46t53 89t23.5 145.5q0 121 -49 194q-33 49 -87 75 t-92 30t-106 6h-161v-608z" />
<glyph unicode="Q" horiz-adv-x="1280" d="M92 709q0 293 98 493q135 276 447 277q252 0 393 -176q156 -193 156 -555q0 -297 -90 -486q-35 -74 -78 -126t-93.5 -81.5t-78 -42t-74.5 -26.5q207 -115 369 -191l-140 -121l-542 328q-25 8 -35 12q-156 66 -244 246.5t-88 448.5zM264 711q0 -270 98.5 -435t274.5 -165 q184 0 280.5 176t96.5 458q0 272 -102.5 433t-266.5 161q-92 0 -162.5 -45t-110.5 -111.5t-65.5 -155.5t-34 -164.5t-8.5 -151.5z" />
<glyph unicode="R" horiz-adv-x="1236" d="M41 0v129h147v1188h-147v129h604q88 -2 138.5 -6t120 -35t108.5 -90q61 -88 61 -223q0 -154 -92 -246q-59 -61 -176 -94q88 -33 123 -79t57 -151l74 -393h139v-129h-295l-84 504q-25 113 -74 150.5t-172 37.5h-211v-563h156v-129h-477zM362 825h267q141 4 205 64 q68 68 67 188q0 115 -55 176q-35 41 -81 51.5t-142 12.5h-261v-492z" />
<glyph unicode="S" horiz-adv-x="1110" d="M96 0v492h148q18 -154 82 -246q43 -68 116.5 -105t155.5 -37q109 0 183.5 73t74.5 190q0 100 -61 165q-35 41 -97.5 71t-226.5 89q-66 25 -107.5 45.5t-108.5 67.5t-102.5 119.5t-35.5 167.5q0 156 105.5 270.5t281.5 114.5q104 0 188 -41q88 -43 142 -123q2 -2 14 -21 l4 156h135v-459h-149q-20 160 -76 234q-86 121 -242 120q-119 0 -182.5 -69.5t-63.5 -163.5q0 -61 21.5 -106.5t66 -75t78 -45t92.5 -35.5l140 -51q53 -20 88 -37t90 -53.5t88 -77.5t58.5 -107.5t25.5 -146.5q0 -190 -122 -296t-290 -106q-84 0 -170 31q-106 39 -196 154 l-6 -158h-142z" />
<glyph unicode="T" horiz-adv-x="1150" d="M41 989v457h1061v-457h-148v328h-299v-1188h152v-129h-469v129h149v1188h-299v-328h-147z" />
<glyph unicode="U" horiz-adv-x="1236" d="M18 1317v129h476v-129h-154v-768q0 -221 43 -307q68 -137 238 -138q182 0 249 154q31 72 31 307v752h-156v129h469v-129h-147v-871q-4 -199 -76 -301q-49 -72 -141 -122t-221 -50q-238 0 -365 160q-43 55 -64.5 129t-24.5 125t-5 148v782h-152z" />
<glyph unicode="V" horiz-adv-x="1280" d="M0 1317v129h440v-129h-143l342 -1157l358 1157h-143v129h424v-129h-121l-420 -1317h-213l-407 1317h-117z" />
<glyph unicode="W" horiz-adv-x="1878" d="M-2 1317v129h438v-129h-141l254 -1139l268 1268h242l301 -1282l242 1153h-140v129h416v-129h-115l-284 -1317h-238l-307 1294l-275 -1294h-237l-297 1317h-127z" />
<glyph unicode="X" horiz-adv-x="1193" d="M23 0v129h114l377 623l-328 565h-123v129h465v-129h-147l225 -410l240 410h-152v129h451v-129h-121l-328 -555l361 -633h117v-129h-472v129h156l-262 477l-281 -477h154v-129h-446z" />
<glyph unicode="Y" horiz-adv-x="1110" d="M-8 1317v129h442v-129h-153l280 -643l289 643h-123v129h395v-129h-104l-381 -809v-379h154v-129h-478v129h154v391l-369 797h-106z" />
<glyph unicode="Z" horiz-adv-x="1110" d="M100 0v129l723 1188h-530v-326h-156v455h879v-129l-723 -1188h567v365h156v-494h-916z" />
<glyph unicode="[" horiz-adv-x="598" d="M182 -403v1884h365v-135h-193v-1612h193v-137h-365z" />
<glyph unicode="\" horiz-adv-x="768" d="M-12 1665h164l622 -1878h-160z" />
<glyph unicode="]" horiz-adv-x="598" d="M47 -266h195v1612h-195v135h367v-1884h-367v137z" />
<glyph unicode="^" horiz-adv-x="1492" d="M319 717l369 729h129l357 -729h-156l-268 559l-275 -559h-156z" />
<glyph unicode="_" horiz-adv-x="1024" d="M0 -154h1024v-102h-1024v102z" />
<glyph unicode="`" horiz-adv-x="598" d="M145 1516h226l80 -273h-144z" />
<glyph unicode="a" d="M84 291q0 156 106 252q123 106 402 106q43 0 121 -4v70q-2 51 -4 77.5t-16.5 63.5t-41.5 59q-51 41 -131 41q-76 0 -138.5 -42t-70.5 -140h-176q6 47 11.5 75t29 74t60.5 81q98 88 280 88q190 0 287 -111q33 -37 50 -89t20.5 -86t5.5 -106v-571h147v-129h-303l-10 125 q-117 -152 -287 -152q-154 0 -248 91.5t-94 226.5zM258 299q0 -84 51 -139.5t142 -55.5q109 0 180 72q47 47 62.5 115.5t19.5 230.5q-106 8 -135 8q-98 0 -179 -26q-141 -58 -141 -205z" />
<glyph unicode="b" horiz-adv-x="1150" d="M41 0v129h152v1188h-152v129h319v-498q31 41 62 68q90 76 225 76q207 0 317.5 -153t110.5 -396q0 -203 -65 -336q-55 -111 -150.5 -171.5t-208.5 -60.5q-129 0 -219 72q-49 39 -90 111l-4 -158h-297zM360 524q0 -207 74 -307q68 -100 189 -100q57 0 108 26 q166 88 166 383q0 174 -53 281q-78 152 -221 151q-82 0 -142 -53q-121 -102 -121 -381z" />
<glyph unicode="c" horiz-adv-x="937" d="M80 516q0 250 90 399q109 176 303 177q74 0 134.5 -28t84 -51.5t56.5 -64.5l10 111h129v-367h-144q-16 82 -45 137q-68 129 -188 129q-72 0 -127 -45q-68 -53 -98 -161q-31 -96 -31 -242q0 -190 68 -299q66 -104 186 -105q98 0 162 70q55 61 71 182h162 q-23 -213 -151 -311q-94 -74 -240 -74q-246 0 -358 197q-74 135 -74 346z" />
<glyph unicode="d" horiz-adv-x="1150" d="M80 535q0 233 112.5 395t313.5 162q59 0 106 -13.5t83 -40t54.5 -45t43.5 -49.5v373h-162v129h330v-1317h153v-129h-301l-2 145q-53 -82 -111 -116q-80 -53 -204 -54q-199 0 -307.5 161t-108.5 399zM258 539q0 -150 41 -248q33 -76 90 -128t137 -52q98 0 170 82 q96 111 97 335q0 182 -54 283q-27 51 -80 93t-129 42q-117 0 -194.5 -109.5t-77.5 -297.5z" />
<glyph unicode="e" d="M76 528q0 358 215 498q106 66 241 66q328 0 424 -312q33 -104 33 -254h-735q-1 -20 -1 -39q0 -67 11 -120q23 -115 94.5 -185.5t186.5 -70.5q111 0 180 73q55 57 72 152h170q-29 -182 -142.5 -271.5t-287.5 -89.5q-156 0 -261 72q-100 68 -150 196.5t-50 284.5zM258 653 h555q-14 150 -92 227.5t-186 77.5q-154 0 -228 -133q-35 -61 -49 -172z" />
<glyph unicode="f" horiz-adv-x="598" d="M49 0v129h152v809h-152v129h152v68q2 74 4 107.5t17.5 80.5t47.5 80q72 72 219 72q47 0 142 -15v-133q-70 16 -107 16q-61 0 -98 -28.5t-45 -64.5t-8 -113v-70h202v-129h-202v-809h153v-129h-477z" />
<glyph unicode="g" horiz-adv-x="1110" d="M78 563q0 219 105.5 374t310.5 155q39 0 71 -7q131 -20 209 -118q8 -10 31 -47l8 147h303v-129h-153q-2 -285 -2 -856q0 -94 -2.5 -139t-10.5 -105.5t-29.5 -100.5t-58.5 -77q-113 -117 -323 -117q-184 0 -301 97q-106 84 -127 239h176q12 -63 43 -104q72 -94 211 -94 q88 0 145 36q51 29 76.5 81t29 89t3.5 105v168q-61 -84 -125 -117q-78 -43 -172 -43q-168 0 -285 129q-133 155 -133 434zM252 557q0 -102 22 -184q31 -111 98.5 -171.5t151.5 -60.5q90 0 160 66q111 104 111 338q0 141 -39 237q-74 172 -232 172q-74 0 -131 -43 q-141 -98 -141 -354z" />
<glyph unicode="h" horiz-adv-x="1193" d="M43 0v129h150v1188h-150v129h322v-533q31 49 57.5 81t96 65t165.5 33q143 0 236 -80q41 -37 62.5 -89.5t24.5 -87t3 -90.5v-616h145v-129h-465v129h148v590q-4 125 -50 176q-55 63 -147 63q-109 0 -180 -71q-43 -41 -65.5 -110.5t-25.5 -117t-5 -131.5v-399h151v-129 h-473z" />
<glyph unicode="i" horiz-adv-x="555" d="M45 0v129h158v809h-158v129h328v-938h151v-129h-479zM174 1280v166h199v-166h-199z" />
<glyph unicode="j" horiz-adv-x="512" d="M-119 -297q78 -25 127 -25t84 16.5t52.5 36t25.5 54.5t9 53.5t1 50.5v1049h-155v129h327v-1157q-2 -74 -4 -108.5t-17.5 -86t-45.5 -86.5q-76 -86 -236 -86q-53 0 -168 21v139zM152 1282v166h198v-166h-198z" />
<glyph unicode="k" d="M43 0v129h150v1188h-150v129h319v-862l373 354h-143v129h436v-129h-108l-277 -256l322 -553h98v-129h-420v129h125l-248 436l-158 -143v-293h134v-129h-453z" />
<glyph unicode="l" horiz-adv-x="555" d="M47 0v129h150v1188h-150v129h322v-1317h149v-129h-471z" />
<glyph unicode="m" horiz-adv-x="1662" d="M59 0v129h148v809h-148v129h303l7 -149q82 172 276 172q63 0 119 -21q49 -20 84 -54t45 -57.5t22 -58.5q25 59 43 86q82 104 230 105q174 0 248 -123q20 -33 30.5 -77t11.5 -74t3 -97v-590h153v-129h-475v129h150v510q0 102 -4 154q-4 53 -23 88q-39 70 -123 69 q-96 0 -158 -84q-33 -43 -50 -106.5t-20 -114.5t-3 -141v-375h119v-129h-414v129h127v530q0 172 -23 220q-39 72 -129 71q-72 0 -125 -49q-47 -41 -71.5 -112.5t-28.5 -122t-4 -125.5v-412h153v-129h-473z" />
<glyph unicode="n" horiz-adv-x="1193" d="M53 0v129h148v809h-148v129h314l6 -166q25 53 51 84q94 109 262 109q119 0 197 -54q55 -37 84.5 -97t34 -104t4.5 -122v-588h155v-129h-477v129h150v541q0 102 -11.5 155.5t-56.5 89.5q-47 41 -123 41q-119 0 -188 -92q-35 -43 -54.5 -112.5t-22.5 -119.5t-5 -134v-369 h153v-129h-473z" />
<glyph unicode="o" d="M78 514q0 317 158 473q68 66 173 89q74 16 136 17q27 0 53 -3q84 -10 139 -37q115 -51 182.5 -184.5t67.5 -321.5q0 -240 -100 -395q-104 -178 -357 -179q-190 0 -299 105q-153 143 -153 436zM250 530q0 -143 35 -233q8 -23 20 -46.5t39 -59t74 -58t108 -22.5 q137 0 213 111.5t76 312.5q0 168 -51 274q-74 147 -225 147q-61 0 -115 -26q-174 -87 -174 -400z" />
<glyph unicode="p" horiz-adv-x="1150" d="M41 -287h152v1225h-152v129h301l6 -149q41 51 67.5 79.5t91 61.5t140.5 33q160 0 275 -115q150 -150 149 -445q0 -270 -120 -414.5t-292 -144.5q-174 0 -294 142v-402h153v-129h-477v129zM360 520q0 -135 41 -233q68 -174 226 -174q74 0 133 43q139 96 139 385 q0 174 -69.5 288.5t-200.5 114.5q-135 0 -202 -121t-67 -303z" />
<glyph unicode="q" horiz-adv-x="1150" d="M80 532q0 219 84 363q55 94 146 145.5t194 51.5q76 0 141.5 -33t92 -61.5t67.5 -79.5l6 149h301v-129h-151v-1225h151v-129h-477v129h153v402q-121 -141 -294 -142q-172 0 -293 144.5t-121 414.5zM252 541q0 -55 6 -111q16 -102 41 -158q76 -160 227 -159q98 0 166 73 q98 109 99 334q0 182 -66 303t-203 121q-131 0 -200.5 -114.5t-69.5 -288.5z" />
<glyph unicode="r" horiz-adv-x="724" d="M51 0v129h152v809h-152v129h297l6 -172q37 82 86 125q78 66 183 65q23 0 96 -12v-172q-61 8 -86 8q-123 0 -193 -88q-68 -84 -67 -276v-416h155v-129h-477z" />
<glyph unicode="s" horiz-adv-x="894" d="M76 0v369h139q16 -92 51 -146q74 -115 201 -114q82 0 135 47t53 116q0 27 -16 68q-29 55 -109 94q-16 8 -142 55.5t-150 59.5q-156 74 -156 242q0 139 92 220t217 81q168 0 271 -140l6 115h131v-358h-137q-16 88 -33 120q-33 61 -89.5 95t-121.5 34q-80 0 -125 -44 t-45 -105q0 -57 41 -98q35 -33 166 -76l106.5 -39t95 -45t88 -63.5t53 -86t23.5 -118.5q0 -133 -88 -221.5t-246 -88.5q-70 0 -129 25q-37 14 -66.5 36.5t-41.5 38t-35 48.5l-8 -121h-131z" />
<glyph unicode="t" horiz-adv-x="641" d="M27 938v129h157v229l172 37v-266h234v-129h-234v-684q0 -31 4.5 -50.5t16.5 -42t40.5 -33.5t74.5 -11q35 0 112 12v-135q-96 -14 -143 -14q-78 0 -133.5 18t-82 41.5t-42 65.5t-17.5 70t-2 73v690h-157z" />
<glyph unicode="u" horiz-adv-x="1110" d="M10 938v129h322v-719q4 -143 71 -196q49 -39 125 -39t125 45t69.5 128t28 147.5t7.5 156.5v348h-152v129h322v-938h151v-129h-297l-10 147q-16 -31 -30.5 -51t-49.5 -53t-90 -50.5t-129 -17.5q-123 0 -205 66q-49 39 -73.5 99.5t-28.5 99.5t-4 100v598h-152z" />
<glyph unicode="v" horiz-adv-x="1024" d="M-2 938v129h426v-129h-139l241 -772l236 772h-150v129h418v-129h-108l-299 -938h-213l-301 938h-111z" />
<glyph unicode="w" horiz-adv-x="1705" d="M2 938v129h434v-129h-151l213 -758l256 887h217l254 -887l213 758h-148v129h410v-129h-107l-268 -938h-213l-260 901l-260 -901h-211l-266 938h-113z" />
<glyph unicode="x" horiz-adv-x="980" d="M8 0v129h105l284 420l-254 389h-110v129h401v-129h-96l158 -256l153 256h-98v129h389v-129h-115l-243 -373l284 -436h103v-129h-430v129h135l-195 305l-196 -305h125v-129h-400z" />
<glyph unicode="y" d="M4 938v129h428v-129h-137l250 -741l246 741h-140v129h410v-129h-107l-374 -1067q-31 -86 -53.5 -134t-60.5 -98.5t-93.5 -73t-130.5 -22.5q-61 0 -172 25v151q78 -39 139 -38q55 0 95 19t68.5 67.5t45 90.5t41.5 124l-346 956h-109z" />
<glyph unicode="z" horiz-adv-x="894" d="M33 0v129l590 807h-418v-221h-154v352h787v-129l-596 -809h444v238h152v-367h-805z" />
<glyph unicode="{" horiz-adv-x="724" d="M113 469v141q111 6 141.5 77t30.5 245v137q0 82 3 126t19.5 98.5t48.5 90.5q37 43 95.5 66t99.5 26t117 5v-138q-119 -8 -160 -57q-45 -51 -45 -225v-88q0 -82 -1 -118t-6 -93t-16.5 -83t-30 -58.5t-49 -49t-73.5 -26.5v-10q102 -18 145 -113q20 -47 24.5 -110.5 t6.5 -233.5v-62q0 -172 45 -223q41 -49 160 -57v-137q-74 2 -114 5t-96.5 22.5t-93 58.5t-55 96t-21.5 99t-3 126v141q0 172 -30.5 244t-141.5 78z" />
<glyph unicode="|" horiz-adv-x="468" d="M174 -512v2048h123v-2048h-123z" />
<glyph unicode="}" horiz-adv-x="724" d="M115 -264q119 8 159 57q45 51 45 225v88q0 82 1.5 117t6.5 93.5t16 84t29.5 58.5t48.5 49t73 27v10q-102 18 -144 112q-31 72 -31 344v62q0 172 -45 223q-41 49 -159 57v138q74 -2 113.5 -5t96 -22.5t93.5 -58.5t55.5 -95.5t21.5 -101.5t3 -127v-139q0 -174 30.5 -244 t139.5 -78l2 -141q-111 -6 -141.5 -76.5t-30.5 -245.5v-137q0 -82 -3 -126t-19.5 -98t-49.5 -91q-37 -43 -95.5 -65.5t-99.5 -25.5t-116 -5v137z" />
<glyph unicode="~" horiz-adv-x="1492" d="M274 582q111 162 252 161q80 0 232 -71l65 -31q90 -41 133 -41q96 0 199 127l64 -113q-127 -158 -263 -157q-63 0 -198 63l-60 31q-109 51 -170 51q-41 0 -75 -18q-25 -14 -42.5 -31.5t-68.5 -83.5z" />
<glyph unicode="&#xa1;" horiz-adv-x="598" d="M147 0l17 1077h174l20 -1077h-211zM147 1233v213h211v-213h-211z" />
<glyph unicode="&#xa2;" horiz-adv-x="980" d="M86 516q0 342 166 492q86 76 192 82l-2 210h150l-4 -225q86 -23 166 -127l10 111h129v-367h-143q-25 127 -82 195q-45 53 -90 59v-829q59 18 94 55q61 66 76 186h161q-18 -178 -112 -276q-82 -84 -217 -102l2 -211h-144l4 213q-143 18 -231 116q-125 137 -125 418z M260 512q0 -113 25 -201q43 -162 164 -192v827q-35 -12 -60 -33q-66 -55 -98 -161q-31 -97 -31 -240z" />
<glyph unicode="&#xa3;" horiz-adv-x="1150" d="M41 0v129h147l84 588h-155v123h172q39 260 49 301q27 121 92 194q45 49 103.5 75t100.5 30t124 6h200v-135q-205 0 -263 -7.5t-103 -46.5q-57 -51 -80 -135t-49 -282h311v-123h-330l-82 -588h580v387h154v-516h-1055z" />
<glyph unicode="&#xa4;" horiz-adv-x="1366" d="M117 223l153 150q-113 147 -112 321q0 176 110 322l-147 149l92 92l147 -149q147 113 324 113q170 0 322 -111l149 150l94 -95l-151 -149q31 -43 48 -70.5t39.5 -98.5t22.5 -151q0 -176 -112 -323l151 -152l-94 -94l-149 154q-152 -111 -320 -111q-178 0 -324 111 l-151 -150zM281 696q0 -172 117.5 -288.5t287.5 -116.5q168 0 282.5 115.5t114.5 291.5q0 174 -117.5 288t-283.5 114q-168 0 -284.5 -115t-116.5 -289z" />
<glyph unicode="&#xa5;" horiz-adv-x="1110" d="M-8 1317v129h442v-129h-153l280 -645l289 645h-123v129h395v-129h-104l-254 -541h287v-129h-349l-65 -129v-12h414v-129h-414v-248h154v-129h-478v129h154v248h-408v129h408v14l-57 127h-353v129h291l-250 541h-106z" />
<glyph unicode="&#xa6;" horiz-adv-x="468" d="M174 -358v716h123v-716h-123zM174 666v716h123v-716h-123z" />
<glyph unicode="&#xa7;" horiz-adv-x="980" d="M84 580q0 125 92 213q37 33 98 61q-47 43 -71.5 70.5t-51 88t-26.5 134.5q0 127 70 211q96 121 294 121q162 0 265 -93q47 -41 72.5 -99t30.5 -94t9 -103h-166q-4 86 -30 139q-61 119 -191 119q-59 0 -100 -24t-57.5 -60.5t-22.5 -63t-6 -51.5q0 -90 53 -150.5 t166 -126.5q33 -20 96.5 -55t93.5 -55q41 -25 71 -46.5t68 -59.5t58.5 -90t20.5 -113q0 -76 -36 -139.5t-71 -91t-90 -62.5q43 -45 65.5 -74t46 -85t23.5 -120q0 -135 -96 -231t-264 -96q-158 0 -258 84q-104 88 -121 294h164q4 -70 26 -116q57 -129 193 -129q94 0 144 62.5 t50 133.5q0 51 -26.5 97.5t-52 69t-66.5 50.5q-16 12 -118.5 75t-119.5 75q-43 27 -70.5 49.5t-70.5 64.5t-65.5 97.5t-22.5 118.5zM240 588q0 -115 141 -201l229 -145q147 82 148 202q0 115 -142 199q-14 10 -127 74q-20 10 -58 34l-54 33q-70 -39 -101 -84 q-36 -55 -36 -112z" />
<glyph unicode="&#xa8;" horiz-adv-x="598" d="M61 1296v168h185v-168h-185zM350 1296v168h185v-168h-185z" />
<glyph unicode="&#xa9;" horiz-adv-x="1705" d="M125 723q0 311 215 520t514 209q311 0 520 -213t209 -514q0 -305 -211 -518t-520 -213q-293 0 -510 207t-217 522zM190 723q0 -279 195 -471.5t469 -192.5q281 0 472.5 193.5t191.5 472.5q0 274 -189.5 467.5t-470 193.5t-474.5 -194.5t-194 -468.5zM408 739 q0 250 139 363q106 84 293 84q39 0 200 -15q55 -8 142 -8q8 -113 24 -270h-49q-10 43 -17 68.5t-26.5 64.5t-44.5 60.5t-68 39t-98 17.5q-291 0 -291 -391q0 -193 50 -301q72 -162 253 -162q154 0 215 119q23 41 35 133h49q0 -160 3 -262q-45 -2 -156 -15q-170 -18 -215 -18 q-219 0 -330 125q-108 124 -108 368z" />
<glyph unicode="&#xaa;" horiz-adv-x="681" d="M59 983q0 96 70 156q76 66 250 65q10 0 34.5 -1t35.5 -1q0 51 -1.5 74.5t-9.5 49.5t-24 42q-31 27 -80 27q-115 0 -125 -113h-119q6 18 6 39q14 78 79 118t157 40q113 0 180 -68q45 -49 49 -176v-352h92v-80h-198l-4 67q-72 -84 -174.5 -84t-160 58.5t-57.5 138.5z M176 987q0 -51 30 -85t85 -34q66 0 110 45q45 49 48 211q-55 6 -78 6q-113 0 -158 -49q-37 -37 -37 -94z" />
<glyph unicode="&#xab;" horiz-adv-x="724" d="M41 588l174 350h139l-129 -350l129 -348h-139zM354 588l168 340h140l-130 -340l130 -348h-140z" />
<glyph unicode="&#xac;" horiz-adv-x="1366" d="M0 537v120h1243h123v-657h-123v537h-1243z" />
<glyph unicode="&#xad;" horiz-adv-x="894" d="M70 502v162h753v-162h-753z" />
<glyph unicode="&#xae;" horiz-adv-x="1705" d="M125 723q0 311 214 520t513 209q313 0 522 -213t209 -514q0 -307 -211 -519t-520 -212q-295 0 -511 207t-216 522zM190 723q0 -279 194 -471.5t468 -192.5q281 0 473.5 192.5t192.5 471.5q0 276 -190.5 469.5t-471.5 193.5q-279 0 -472.5 -194.5t-193.5 -468.5zM494 268 v70q66 8 81 29q12 20 13 106v533q0 45 -3 61t-23.5 29.5t-67.5 15.5v70q115 -4 178 -4q16 0 114.5 2t116.5 2q139 0 207 -35q111 -59 111 -184q0 -72 -50.5 -134.5t-173.5 -80.5q88 -27 123 -170l19 -80q25 -90 41 -103q8 -4 18 -4q47 0 70 113l63 -10q-51 -233 -170 -234 q-63 0 -100 41q-37 37 -82 207q-29 123 -57.5 164t-112.5 47h-70v-248q0 -80 15.5 -101.5t91.5 -31.5v-70q-68 4 -162 4q-59 0 -190 -4zM739 809h72q78 0 119 8q55 10 93 47t38 97q0 47 -23 79q-43 63 -161 64q-96 0 -117 -22.5t-21 -112.5v-160z" />
<glyph unicode="&#xaf;" horiz-adv-x="598" d="M61 1298v121h476v-121h-476z" />
<glyph unicode="&#xb0;" horiz-adv-x="724" d="M61 1231q0 125 88.5 213t213 88t213 -88t88.5 -213t-88.5 -213t-213 -88t-213 88t-88.5 213zM184 1231q0 -74 51.5 -126t126.5 -52q74 0 126.5 52t52.5 126t-52.5 126t-126.5 52q-76 0 -127 -52t-51 -126z" />
<glyph unicode="&#xb1;" horiz-adv-x="1366" d="M84 0v121h1198v-121h-1198zM84 776v121h541v524h120v-524h537v-121h-537v-524h-120v524h-541z" />
<glyph unicode="&#xb2;" horiz-adv-x="768" d="M74 543v88l178 200q160 180 215 257t55 143q0 57 -41 99t-112 42q-92 0 -140 -76q-20 -37 -24 -92h-111q8 84 35 135q66 125 240 125q119 0 191.5 -62.5t72.5 -168.5q0 -90 -52.5 -167t-246.5 -298l-127 -133h330v160h106v-252h-569z" />
<glyph unicode="&#xb3;" horiz-adv-x="768" d="M55 793h119q2 -82 55.5 -130.5t137.5 -48.5q104 0 145 55.5t41 116.5q0 63 -37 110.5t-104 59.5q-25 4 -115 5v94q76 0 104 6q57 10 90 45t39.5 60.5t6.5 47.5q0 74 -49.5 115t-120.5 41q-61 0 -113.5 -36t-63.5 -122h-114q6 78 39 131q76 121 256 121q129 0 205.5 -67.5 t76.5 -175.5q0 -92 -63 -154q-33 -33 -101 -55q98 -27 143.5 -88.5t45.5 -137.5q0 -111 -80 -187.5t-225 -76.5q-172 0 -260 103q-54 62 -58 168z" />
<glyph unicode="&#xb4;" horiz-adv-x="598" d="M143 1241l86 275h226l-168 -275h-144z" />
<glyph unicode="&#xb5;" horiz-adv-x="1110" d="M10 938v129h322v-719q4 -143 71 -196q49 -39 125 -39t125 44t69.5 127t28 147.5t7.5 158.5v348h-152v129h322v-938h151v-129h-297l-10 150q-29 -49 -46 -72t-52 -47q-86 -55 -170 -56q-100 0 -187 80v-473h-155v1356h-152z" />
<glyph unicode="&#x3bc;" horiz-adv-x="1110" d="M10 938v129h322v-719q4 -143 71 -196q49 -39 125 -39t125 44t69.5 127t28 147.5t7.5 158.5v348h-152v129h322v-938h151v-129h-297l-10 150q-29 -49 -46 -72t-52 -47q-86 -55 -170 -56q-100 0 -187 80v-473h-155v1356h-152z" />
<glyph unicode="&#xb6;" horiz-adv-x="1366" d="M184 1049q0 186 125 294q51 45 119 70t105.5 28t101.5 5h455v-90h-70v-1698h-94v1698h-322v-1698h-94v1018q-117 18 -188 72q-138 104 -138 301z" />
<glyph unicode="&#xb7;" horiz-adv-x="512" d="M145 469v217h220v-217h-220z" />
<glyph unicode="&#xb8;" horiz-adv-x="598" d="M137 -307h86q18 -70 74 -70q35 0 54.5 23.5t19.5 56.5q0 35 -18.5 58.5t-51.5 23.5t-61 -25l-93 15l76 266h84l-55 -197q45 18 72 19q66 0 101.5 -44t35.5 -112q0 -72 -43 -119t-123 -47q-51 0 -85 16.5t-48.5 45t-18.5 46t-6 44.5z" />
<glyph unicode="&#xb9;" horiz-adv-x="768" d="M229 1296v97l156 55h76v-817h92v-88h-301v88h92v706z" />
<glyph unicode="&#xba;" horiz-adv-x="681" d="M55 1126.5q0 157.5 72 253.5q76 96 217 97q137 0 211 -93q72 -88 72 -243q0 -158 -72 -256.5t-215 -98.5t-217 99q-68 84 -68 241.5zM172 1135q0 -262 172 -263q88 0 127 79t39 182q0 41 -6 79.5t-22.5 82.5t-51.5 71t-86 27q-39 0 -70 -17q-102 -55 -102 -241z" />
<glyph unicode="&#xbb;" horiz-adv-x="724" d="M63 238l130 337l-130 349h140l176 -349l-176 -337h-140zM369 238l129 337l-129 349h139l174 -349l-174 -337h-139z" />
<glyph unicode="&#xbc;" horiz-adv-x="1792" d="M229 1294v97l156 55h76v-815h92v-88h-301v88h92v706zM549 0l559 1446h117l-555 -1446h-121zM1083 248v92l320 563h172v-563h172v-92h-172v-156h90v-92h-301v92h96v156h-377zM1202 340h258v461z" />
<glyph unicode="&#xbd;" horiz-adv-x="1792" d="M229 1296v97l156 55h76v-817h92v-88h-301v88h92v708zM549 0l559 1448h117l-555 -1448h-121zM1098 0v88l178 201q162 182 216 259t54 142q0 57 -41 99t-112 42q-92 0 -138 -75q-23 -37 -26 -92h-111q8 84 35 135q66 125 242 125q117 0 189.5 -61.5t72.5 -168.5 q0 -92 -51.5 -168.5t-247.5 -298.5l-127 -135h330v160h106v-252h-569z" />
<glyph unicode="&#xbe;" horiz-adv-x="1792" d="M55 793h119q2 -82 55.5 -130.5t137.5 -48.5q104 0 145 55.5t41 116.5q0 63 -37 110.5t-104 59.5q-25 4 -115 5v94q76 0 104 6q57 10 90 45t39.5 60.5t6.5 47.5q0 74 -49.5 115t-120.5 41q-61 0 -113.5 -36t-63.5 -122h-114q6 78 39 131q76 121 256 121q129 0 205.5 -67.5 t76.5 -175.5q0 -92 -63 -154q-33 -33 -101 -55q98 -27 143.5 -88.5t45.5 -137.5q0 -111 -80 -187.5t-225 -76.5q-172 0 -260 103q-54 62 -58 168zM549 0l559 1448h117l-557 -1448h-119zM1083 248v92l320 563h172v-563h172v-92h-172v-156h90v-92h-301v92h96v156h-377z M1202 340h258v461z" />
<glyph unicode="&#xbf;" horiz-adv-x="980" d="M80 313q0 84 43 179q31 57 75 111t164 185q47 51 59.5 82t14.5 91v126h170v-114q0 -82 -19.5 -130t-99.5 -138q-141 -160 -189 -233t-48 -157q0 -94 67.5 -150t163.5 -56q100 0 174 47q127 84 127 305h174q-6 -207 -82 -320q-119 -172 -376 -172q-201 0 -309.5 101.5 t-108.5 242.5zM414 1235v211h213v-211h-213z" />
<glyph unicode="&#xc0;" horiz-adv-x="1280" d="M6 0v129h117l369 1188h-109v129h526v-129h-114l360 -1188h115v-129h-430v129h139l-98 330h-498l-94 -330h129v-129h-412zM418 1864h225l80 -273h-143zM422 584h428l-211 712z" />
<glyph unicode="&#xc1;" horiz-adv-x="1280" d="M6 0v129h117l369 1188h-109v129h526v-129h-114l360 -1188h115v-129h-430v129h139l-98 330h-498l-94 -330h129v-129h-412zM422 584h428l-211 712zM553 1591l86 275h225l-168 -275h-143z" />
<glyph unicode="&#xc2;" horiz-adv-x="1280" d="M6 0v129h117l369 1188h-109v129h526v-129h-114l360 -1188h115v-129h-430v129h139l-98 330h-498l-94 -330h129v-129h-412zM422 584h428l-211 712zM424 1591l102 279h219l97 -279h-115l-92 166l-92 -166h-119z" />
<glyph unicode="&#xc3;" horiz-adv-x="1280" d="M6 0v129h117l369 1188h-109v129h526v-129h-114l360 -1188h115v-129h-430v129h139l-98 330h-498l-94 -330h129v-129h-412zM322 1620q8 115 18 147q31 106 119 107q23 0 90 -23q8 -4 188 -122q41 -29 64 -29q49 0 57 141h92q-4 -150 -43 -203q-37 -49 -98 -49 q-49 0 -107 35l-91 59l-81 54q-35 23 -55 22q-23 0 -36 -20.5t-16 -45t-5 -73.5h-96zM422 584h428l-211 712z" />
<glyph unicode="&#xc4;" horiz-adv-x="1280" d="M6 0v129h117l369 1188h-109v129h526v-129h-114l360 -1188h115v-129h-430v129h139l-98 330h-498l-94 -330h129v-129h-412zM399 1649v166h185v-166h-185zM422 584h428l-211 712zM688 1649v166h186v-166h-186z" />
<glyph unicode="&#xc5;" horiz-adv-x="1280" d="M6 0v129h117l369 1188h-109v129h526v-129h-114l360 -1188h115v-129h-430v129h139l-98 330h-498l-94 -330h129v-129h-412zM422 584h428l-211 712zM434 1745q0 80 57.5 139.5t149.5 59.5q90 0 148.5 -59.5t58.5 -139.5q0 -82 -58.5 -140.5t-148.5 -58.5q-92 0 -149.5 58.5 t-57.5 140.5zM520 1745q0 -49 35 -85t86 -36t87 36t36 85q0 51 -37 87t-86 36t-85 -36t-36 -87z" />
<glyph unicode="&#xc6;" horiz-adv-x="1748" d="M8 0v129h96l490 1188h-129v129h1161v-449h-151v320h-547l73 -479h418v-136h-397l90 -573h363v358h151v-487h-817v129h137l-51 332h-489l-138 -332h138v-129h-398zM459 588h415l-114 737z" />
<glyph unicode="&#xc7;" horiz-adv-x="1193" d="M92 702q0 100 12 203q45 313 193 451q131 123 321 123q166 0 265 -76q41 -31 78 -88l4 133h135v-459h-150q-14 96 -35 150q-35 94 -106.5 152.5t-171.5 58.5q-78 0 -139 -31q-123 -61 -183 -254q-47 -156 -47 -365q0 -104 15 -192q18 -121 53 -199q96 -207 291 -207 q111 0 188 64q115 90 135 317h164q-8 -78 -15 -122t-38 -118.5t-82 -131.5q-121 -131 -342 -138l-37 -129q47 18 72 19q66 0 101.5 -45t35.5 -111q0 -68 -41 -117t-127 -49q-49 0 -82 17q-63 35 -74 135h86q18 -70 74 -70q35 0 54.5 23.5t19.5 56.5q0 35 -17.5 58.5 t-52.5 23.5q-33 0 -61 -25l-92 15l59 202q-131 16 -224 82t-143.5 169.5t-73 220t-22.5 253.5z" />
<glyph unicode="&#xc8;" horiz-adv-x="1150" d="M41 0v129h149v1188h-149v129h993v-453h-153v324h-519v-479h469v-136h-469v-573h519v358h153v-487h-993zM354 1864h226l79 -273h-143z" />
<glyph unicode="&#xc9;" horiz-adv-x="1150" d="M41 0v129h149v1188h-149v129h993v-453h-153v324h-519v-479h469v-136h-469v-573h519v358h153v-487h-993zM489 1591l86 275h226l-168 -275h-144z" />
<glyph unicode="&#xca;" horiz-adv-x="1150" d="M41 0v129h149v1188h-149v129h993v-453h-153v324h-519v-479h469v-136h-469v-573h519v358h153v-487h-993zM360 1591l103 279h219l96 -279h-114l-93 166l-92 -166h-119z" />
<glyph unicode="&#xcb;" horiz-adv-x="1150" d="M41 0v129h149v1188h-149v129h993v-453h-153v324h-519v-479h469v-136h-469v-573h519v358h153v-487h-993zM336 1647v165h184v-165h-184zM625 1647v165h186v-165h-186z" />
<glyph unicode="&#xcc;" horiz-adv-x="555" d="M37 0v129h151v1188h-151v129h477v-129h-154v-1188h154v-129h-477zM55 1864h226l79 -273h-143z" />
<glyph unicode="&#xcd;" horiz-adv-x="555" d="M37 0v129h151v1188h-151v129h477v-129h-154v-1188h154v-129h-477zM190 1591l86 275h226l-168 -275h-144z" />
<glyph unicode="&#xce;" horiz-adv-x="555" d="M37 0v129h151v1188h-151v129h477v-129h-154v-1188h154v-129h-477zM61 1591l103 279h219l96 -279h-114l-93 166l-92 -166h-119z" />
<glyph unicode="&#xcf;" horiz-adv-x="555" d="M37 0v129h151v1188h-151v129h477v-129h-154v-1188h154v-129h-477zM37 1647v165h184v-165h-184zM326 1647v165h186v-165h-186z" />
<glyph unicode="&#xd0;" horiz-adv-x="1280" d="M-2 705v129h190v483h-151v129h524q72 -2 110 -4t109.5 -16.5t118.5 -40t101.5 -77t93.5 -122.5q94 -172 94 -441q0 -88 -12 -174q-31 -229 -125 -362q-49 -70 -106.5 -115t-125 -63.5t-111.5 -23.5t-116 -7h-555v129h151v576h-190zM358 129h148q14 0 41.5 1t42.5 1 q141 4 223 59q111 76 155 228.5t44 308.5q0 246 -84 399q-35 66 -80 106t-101.5 57.5t-92.5 21.5t-101 6h-195v-483h347v-129h-347v-576z" />
<glyph unicode="&#xd1;" horiz-adv-x="1280" d="M41 0v129h149v1188h-149v129h428l473 -1305v1176h-147v129h456v-129h-153v-1317h-273l-479 1317v-1188h150v-129h-455zM322 1620q8 115 18 147q31 106 119 107q23 0 90 -23q8 -4 188 -122q41 -29 64 -29q49 0 57 141h92q-4 -150 -43 -203q-37 -49 -98 -49q-49 0 -107 35 l-91 59l-81 54q-35 23 -55 22q-23 0 -36 -20.5t-16 -45t-5 -73.5h-96z" />
<glyph unicode="&#xd2;" horiz-adv-x="1280" d="M92 700q0 463 209 654q135 123 334 123q205 0 338 -119q213 -186 213 -617q0 -156 -29 -286q-45 -219 -164 -344q-131 -139 -356 -140q-348 0 -479 336q-66 164 -66 393zM264 709q0 -119 17 -211q31 -168 121 -277.5t235 -109.5q109 0 187.5 62.5t117.5 164.5t55.5 199.5 t16.5 197.5q0 260 -96.5 431t-272.5 171q-186 0 -283.5 -173.5t-97.5 -454.5zM418 1864h225l80 -273h-143z" />
<glyph unicode="&#xd3;" horiz-adv-x="1280" d="M92 700q0 463 209 654q135 123 334 123q205 0 338 -119q213 -186 213 -617q0 -156 -29 -286q-45 -219 -164 -344q-131 -139 -356 -140q-348 0 -479 336q-66 164 -66 393zM264 709q0 -119 17 -211q31 -168 121 -277.5t235 -109.5q109 0 187.5 62.5t117.5 164.5t55.5 199.5 t16.5 197.5q0 260 -96.5 431t-272.5 171q-186 0 -283.5 -173.5t-97.5 -454.5zM553 1591l86 275h225l-168 -275h-143z" />
<glyph unicode="&#xd4;" horiz-adv-x="1280" d="M92 700q0 463 209 654q135 123 334 123q205 0 338 -119q213 -186 213 -617q0 -156 -29 -286q-45 -219 -164 -344q-131 -139 -356 -140q-348 0 -479 336q-66 164 -66 393zM264 709q0 -119 17 -211q31 -168 121 -277.5t235 -109.5q109 0 187.5 62.5t117.5 164.5t55.5 199.5 t16.5 197.5q0 260 -96.5 431t-272.5 171q-186 0 -283.5 -173.5t-97.5 -454.5zM424 1591l102 279h219l97 -279h-115l-92 166l-92 -166h-119z" />
<glyph unicode="&#xd5;" horiz-adv-x="1280" d="M92 700q0 463 209 654q135 123 334 123q205 0 338 -119q213 -186 213 -617q0 -156 -29 -286q-45 -219 -164 -344q-131 -139 -356 -140q-348 0 -479 336q-66 164 -66 393zM264 709q0 -119 17 -211q31 -168 121 -277.5t235 -109.5q109 0 187.5 62.5t117.5 164.5t55.5 199.5 t16.5 197.5q0 260 -96.5 431t-272.5 171q-186 0 -283.5 -173.5t-97.5 -454.5zM344 1620q8 115 18 147q31 106 119 107q23 0 90 -23q8 -4 189 -122q41 -29 63 -29q49 0 58 141h92q-4 -150 -43 -203q-37 -49 -99 -49q-49 0 -106 35l-92 59l-80 54q-33 23 -55.5 22.5t-35.5 -21 t-16.5 -45t-5.5 -73.5h-96z" />
<glyph unicode="&#xd6;" horiz-adv-x="1280" d="M92 700q0 463 209 654q135 123 334 123q205 0 338 -119q213 -186 213 -617q0 -156 -29 -286q-45 -219 -164 -344q-131 -139 -356 -140q-348 0 -479 336q-66 164 -66 393zM264 709q0 -119 17 -211q31 -168 121 -277.5t235 -109.5q109 0 187.5 62.5t117.5 164.5t55.5 199.5 t16.5 197.5q0 260 -96.5 431t-272.5 171q-186 0 -283.5 -173.5t-97.5 -454.5zM399 1649v166h185v-166h-185zM688 1649v166h186v-166h-186z" />
<glyph unicode="&#xd7;" horiz-adv-x="1366" d="M172 170l424 426l-424 422l86 86l424 -424l426 424l84 -86l-424 -422l424 -426l-84 -84l-426 424l-424 -424z" />
<glyph unicode="&#xd8;" horiz-adv-x="1280" d="M47 -207l199 344q-35 45 -58 82q-98 174 -98 451q0 219 55 393q125 414 500 414q156 0 295 -84l117 217h168l-183 -316q41 -59 56 -86q88 -170 88 -426q0 -109 -15 -200q-37 -283 -168 -447t-370 -164q-147 0 -283 74l-137 -252h-166zM262 668q0 -211 74 -369l528 954 q-98 84 -211 84q-88 0 -158.5 -45t-112.5 -113.5t-70.5 -160.5t-39 -178t-10.5 -172zM422 182q86 -74 205 -73q188 0 287.5 194.5t99.5 476.5q0 223 -68 344z" />
<glyph unicode="&#xd9;" horiz-adv-x="1236" d="M18 1317v129h476v-129h-154v-768q0 -221 43 -307q68 -137 238 -138q182 0 249 154q31 72 31 307v752h-156v129h469v-129h-147v-871q-4 -199 -76 -301q-49 -72 -141 -122t-221 -50q-238 0 -365 160q-43 55 -64.5 129t-24.5 125t-5 148v782h-152zM397 1864h226l79 -273 h-143z" />
<glyph unicode="&#xda;" horiz-adv-x="1236" d="M18 1317v129h476v-129h-154v-768q0 -221 43 -307q68 -137 238 -138q182 0 249 154q31 72 31 307v752h-156v129h469v-129h-147v-871q-4 -199 -76 -301q-49 -72 -141 -122t-221 -50q-238 0 -365 160q-43 55 -64.5 129t-24.5 125t-5 148v782h-152zM532 1591l86 275h226 l-168 -275h-144z" />
<glyph unicode="&#xdb;" horiz-adv-x="1236" d="M18 1317v129h476v-129h-154v-768q0 -221 43 -307q68 -137 238 -138q182 0 249 154q31 72 31 307v752h-156v129h469v-129h-147v-871q-4 -199 -76 -301q-49 -72 -141 -122t-221 -50q-238 0 -365 160q-43 55 -64.5 129t-24.5 125t-5 148v782h-152zM403 1591l103 279h219 l96 -279h-114l-93 166l-92 -166h-119z" />
<glyph unicode="&#xdc;" horiz-adv-x="1236" d="M18 1317v129h476v-129h-154v-768q0 -221 43 -307q68 -137 238 -138q182 0 249 154q31 72 31 307v752h-156v129h469v-129h-147v-871q-4 -199 -76 -301q-49 -72 -141 -122t-221 -50q-238 0 -365 160q-43 55 -64.5 129t-24.5 125t-5 148v782h-152zM379 1645v165h184v-165 h-184zM668 1645v165h186v-165h-186z" />
<glyph unicode="&#xdd;" horiz-adv-x="1110" d="M-8 1317v129h442v-129h-153l280 -643l289 643h-123v129h395v-129h-104l-381 -809v-379h154v-129h-478v129h154v391l-369 797h-106zM469 1591l86 275h225l-168 -275h-143z" />
<glyph unicode="&#xde;" horiz-adv-x="1110" d="M37 0v129h156v1188h-156v129h477v-129h-149v-141h190q53 0 83 -2.5t84 -10.5t90 -24.5t78 -47t73 -75.5q76 -113 75 -275q0 -190 -104 -309q-51 -55 -122 -85t-118 -34t-131 -6h-198v-178h149v-129h-477zM365 436h149q49 0 78 2t76 11.5t75.5 29t58 51t44 86t14.5 125.5 q0 119 -49 195q-33 49 -87 74.5t-92 29.5t-106 7h-161v-611z" />
<glyph unicode="&#xdf;" horiz-adv-x="1110" d="M37 0v129h153v885q2 63 6.5 98t17.5 95.5t45 109.5t83 86q96 72 240 72q25 0 52.5 -2.5t89.5 -21.5t108.5 -54t83 -110t36.5 -177q0 -80 -20.5 -137.5t-59 -90t-64.5 -47t-65 -28.5q133 -41 193 -115q92 -106 92 -289q0 -205 -118.5 -313t-284.5 -108q-57 0 -136 16v143 q59 -12 103 -12q121 0 188.5 85t67.5 220q0 170 -94 248q-37 31 -79 38t-124 7v133q98 8 145 43q80 61 80 189q0 115 -56 182t-145 67q-68 0 -118 -38q-43 -33 -65.5 -89.5t-26 -98.5t-3.5 -120v-995h-325z" />
<glyph unicode="&#xe0;" d="M84 291q0 156 106 252q123 106 402 106q43 0 121 -4v70q-2 51 -4 77.5t-16.5 63.5t-41.5 59q-51 41 -131 41q-76 0 -138.5 -42t-70.5 -140h-176q6 47 11.5 75t29 74t60.5 81q98 88 280 88q190 0 287 -111q33 -37 50 -89t20.5 -86t5.5 -106v-571h147v-129h-303l-10 125 q-117 -152 -287 -152q-154 0 -248 91.5t-94 226.5zM258 299q0 -84 51 -139.5t142 -55.5q109 0 180 72q47 47 62.5 115.5t19.5 230.5q-106 8 -135 8q-98 0 -179 -26q-141 -58 -141 -205zM313 1516h226l79 -273h-143z" />
<glyph unicode="&#xe1;" d="M84 291q0 156 106 252q123 106 402 106q43 0 121 -4v70q-2 51 -4 77.5t-16.5 63.5t-41.5 59q-51 41 -131 41q-76 0 -138.5 -42t-70.5 -140h-176q6 47 11.5 75t29 74t60.5 81q98 88 280 88q190 0 287 -111q33 -37 50 -89t20.5 -86t5.5 -106v-571h147v-129h-303l-10 125 q-117 -152 -287 -152q-154 0 -248 91.5t-94 226.5zM258 299q0 -84 51 -139.5t142 -55.5q109 0 180 72q47 47 62.5 115.5t19.5 230.5q-106 8 -135 8q-98 0 -179 -26q-141 -58 -141 -205zM449 1241l86 275h225l-168 -275h-143z" />
<glyph unicode="&#xe2;" d="M84 291q0 156 106 252q123 106 402 106q43 0 121 -4v70q-2 51 -4 77.5t-16.5 63.5t-41.5 59q-51 41 -131 41q-76 0 -138.5 -42t-70.5 -140h-176q6 47 11.5 75t29 74t60.5 81q98 88 280 88q190 0 287 -111q33 -37 50 -89t20.5 -86t5.5 -106v-571h147v-129h-303l-10 125 q-117 -152 -287 -152q-154 0 -248 91.5t-94 226.5zM258 299q0 -84 51 -139.5t142 -55.5q109 0 180 72q47 47 62.5 115.5t19.5 230.5q-106 8 -135 8q-98 0 -179 -26q-141 -58 -141 -205zM319 1243l103 279h219l96 -279h-114l-93 166l-92 -166h-119z" />
<glyph unicode="&#xe3;" d="M84 291q0 156 106 252q123 106 402 106q43 0 121 -4v70q-2 51 -4 77.5t-16.5 63.5t-41.5 59q-51 41 -131 41q-76 0 -138.5 -42t-70.5 -140h-176q6 47 11.5 75t29 74t60.5 81q98 88 280 88q190 0 287 -111q33 -37 50 -89t20.5 -86t5.5 -106v-571h147v-129h-303l-10 125 q-117 -152 -287 -152q-154 0 -248 91.5t-94 226.5zM217 1272q8 115 19 147q31 106 118 107q57 0 127 -45q10 -6 74 -49l78 -54q45 -29 63 -28q49 0 58 143h92q-4 -152 -43 -205q-37 -49 -98 -49q-49 0 -107 35l-172 115q-33 23 -55.5 22.5t-35.5 -21t-16.5 -45t-5.5 -73.5 h-96zM258 299q0 -84 51 -139.5t142 -55.5q109 0 180 72q47 47 62.5 115.5t19.5 230.5q-106 8 -135 8q-98 0 -179 -26q-141 -58 -141 -205z" />
<glyph unicode="&#xe4;" d="M84 291q0 156 106 252q123 106 402 106q43 0 121 -4v70q-2 51 -4 77.5t-16.5 63.5t-41.5 59q-51 41 -131 41q-76 0 -138.5 -42t-70.5 -140h-176q6 47 11.5 75t29 74t60.5 81q98 88 280 88q190 0 287 -111q33 -37 50 -89t20.5 -86t5.5 -106v-571h147v-129h-303l-10 125 q-117 -152 -287 -152q-154 0 -248 91.5t-94 226.5zM258 299q0 -84 51 -139.5t142 -55.5q109 0 180 72q47 47 62.5 115.5t19.5 230.5q-106 8 -135 8q-98 0 -179 -26q-141 -58 -141 -205zM289 1300v168h184v-168h-184zM578 1300v168h184v-168h-184z" />
<glyph unicode="&#xe5;" d="M84 291q0 156 106 252q123 106 402 106q43 0 121 -4v70q-2 51 -4 77.5t-16.5 63.5t-41.5 59q-51 41 -131 41q-76 0 -138.5 -42t-70.5 -140h-176q6 47 11.5 75t29 74t60.5 81q98 88 280 88q190 0 287 -111q33 -37 50 -89t20.5 -86t5.5 -106v-571h147v-129h-303l-10 125 q-117 -152 -287 -152q-154 0 -248 91.5t-94 226.5zM258 299q0 -84 51 -139.5t142 -55.5q109 0 180 72q47 47 62.5 115.5t19.5 230.5q-106 8 -135 8q-98 0 -179 -26q-141 -58 -141 -205zM315 1393q0 80 57.5 139t149.5 59q90 0 148.5 -58t58.5 -140t-58.5 -140.5 t-148.5 -58.5q-92 0 -149.5 57.5t-57.5 141.5zM401 1393q0 -49 36 -86t85 -37q51 0 87 36.5t36 86.5q0 51 -37 87t-86 36q-51 0 -86 -36t-35 -87z" />
<glyph unicode="&#xe6;" horiz-adv-x="1662" d="M82 293q0 92 45 170t125 123q55 31 139 46t143.5 17t172.5 2q0 135 -13 178q-39 127 -184 127q-84 0 -137.5 -45t-63.5 -135h-176q18 141 82 209q100 106 297 107q135 0 229 -64q66 -45 107 -135q23 49 55 84q106 115 275 115q205 0 313 -154q100 -137 100 -408h-688 q0 -109 15 -165q27 -113 95 -183.5t167 -70.5q53 0 94 20q37 16 62.5 41t41 58.5t21.5 51t14 52.5h166q-20 -160 -98 -244q-106 -117 -299 -117q-133 0 -234 64q-106 70 -155 221q-37 -145 -123 -211q-98 -74 -248 -74q-160 0 -250 92.5t-90 227.5zM256 301 q0 -90 55.5 -143.5t134.5 -53.5q102 0 175 64q80 72 84 252v110q-100 2 -152.5 -1t-116 -20t-106.5 -52q-74 -60 -74 -156zM918 651h499q-6 106 -47 185q-66 129 -199 129q-115 0 -184 -93q-65 -82 -69 -221z" />
<glyph unicode="&#xe7;" horiz-adv-x="937" d="M80 514q0 248 90 401q109 176 303 177q74 0 134.5 -28t84 -51.5t56.5 -64.5l10 111h129v-367h-144q-25 98 -45 137q-70 129 -188 129q-37 0 -73 -12t-82 -62t-70 -132q-31 -96 -31 -242q0 -193 68 -299q70 -104 186 -105q98 0 162 70q55 59 71 182h162 q-20 -199 -135 -297q-92 -82 -240 -88l-36 -129q45 18 71 19q66 0 101.5 -45t35.5 -111q0 -72 -43 -119t-122 -47q-57 0 -95 23q-55 35 -65 129h88q12 -70 74 -70q33 0 53 22.5t20 57.5q0 33 -17.5 57.5t-53.5 24.5q-35 0 -60 -25l-94 15l59 205q-213 27 -303 217 q-61 133 -61 317z" />
<glyph unicode="&#xe8;" d="M76 528q0 358 215 498q106 66 241 66q328 0 424 -312q33 -104 33 -254h-735q-4 -90 10 -159q23 -115 94.5 -185.5t186.5 -70.5q111 0 180 73q55 57 72 152h170q-29 -182 -142.5 -271.5t-287.5 -89.5q-156 0 -261 72q-100 68 -150 196.5t-50 284.5zM258 653h555 q-14 150 -92 227.5t-186 77.5q-154 0 -228 -133q-35 -61 -49 -172zM326 1516h225l80 -273h-144z" />
<glyph unicode="&#xe9;" d="M76 528q0 358 215 498q106 66 241 66q328 0 424 -312q33 -104 33 -254h-735q-4 -90 10 -159q23 -115 94.5 -185.5t186.5 -70.5q111 0 180 73q55 57 72 152h170q-29 -182 -142.5 -271.5t-287.5 -89.5q-156 0 -261 72q-100 68 -150 196.5t-50 284.5zM258 653h555 q-14 150 -92 227.5t-186 77.5q-154 0 -228 -133q-35 -61 -49 -172zM461 1241l86 275h225l-168 -275h-143z" />
<glyph unicode="&#xea;" d="M76 528q0 358 215 498q106 66 241 66q328 0 424 -312q33 -104 33 -254h-735q-4 -90 10 -159q23 -115 94.5 -185.5t186.5 -70.5q111 0 180 73q55 57 72 152h170q-29 -182 -142.5 -271.5t-287.5 -89.5q-156 0 -261 72q-100 68 -150 196.5t-50 284.5zM258 653h555 q-14 150 -92 227.5t-186 77.5q-154 0 -228 -133q-35 -61 -49 -172zM332 1243l102 279h219l97 -279h-115l-92 166l-92 -166h-119z" />
<glyph unicode="&#xeb;" d="M76 528q0 358 215 498q106 66 241 66q328 0 424 -312q33 -104 33 -254h-735q-4 -90 10 -159q23 -115 94.5 -185.5t186.5 -70.5q111 0 180 73q55 57 72 152h170q-29 -182 -142.5 -271.5t-287.5 -89.5q-156 0 -261 72q-100 68 -150 196.5t-50 284.5zM258 653h555 q-14 150 -92 227.5t-186 77.5q-154 0 -228 -133q-35 -61 -49 -172zM311 1296v168h185v-168h-185zM600 1296v168h184v-168h-184z" />
<glyph unicode="&#xec;" horiz-adv-x="555" d="M45 0v129h156v809h-156v129h328v-938h151v-129h-479zM55 1516h226l79 -273h-143z" />
<glyph unicode="&#xed;" horiz-adv-x="555" d="M45 0v129h156v809h-156v129h328v-938h151v-129h-479zM190 1241l86 275h226l-168 -275h-144z" />
<glyph unicode="&#xee;" horiz-adv-x="555" d="M45 0v129h156v809h-156v129h328v-938h151v-129h-479zM61 1243l103 279h219l96 -279h-114l-93 166l-92 -166h-119z" />
<glyph unicode="&#xef;" horiz-adv-x="555" d="M41 1296v168h184v-168h-184zM45 0v129h156v809h-156v129h328v-938h151v-129h-479zM330 1296v168h184v-168h-184z" />
<glyph unicode="&#xf0;" d="M78 524q0 211 69.5 343t176.5 182q86 43 194 43q88 0 174 -35q-55 94 -112 155l-258 -79l-46 114l207 68q-55 55 -112 100l161 68q90 -84 117 -115l189 62l47 -121l-146 -45q248 -317 248 -723q0 -164 -51 -295t-139 -197q-104 -76 -265 -76q-186 0 -292 99 q-162 147 -162 452zM250 530q0 -143 35 -233q8 -23 20 -46.5t39 -59t74 -58t108 -22.5q63 0 109 22q80 37 123 125q55 102 55 277q0 168 -51 274q-74 147 -223 147q-61 0 -115 -26q-174 -87 -174 -400z" />
<glyph unicode="&#xf1;" horiz-adv-x="1193" d="M53 0v129h148v809h-148v129h314l6 -166q25 53 51 84q94 109 262 109q119 0 197 -54q55 -37 84.5 -97t34 -104t4.5 -122v-588h155v-129h-477v129h150v541q0 102 -11.5 155.5t-56.5 89.5q-47 41 -123 41q-119 0 -188 -92q-35 -43 -54.5 -112.5t-22.5 -119.5t-5 -134v-369 h153v-129h-473zM283 1272q8 115 18 147q31 106 119 107q57 0 127 -45q10 -6 74 -49l77 -54q45 -29 64 -28q49 0 57 143h92q-4 -152 -43 -205q-37 -49 -98 -49q-49 0 -106 35l-172 115q-33 23 -55.5 22.5t-36 -21t-16.5 -45t-5 -73.5h-96z" />
<glyph unicode="&#xf2;" d="M78 514q0 317 158 473q68 66 173 89.5t189 13t139 -36.5q115 -51 182.5 -184.5t67.5 -321.5q0 -240 -100 -395q-104 -178 -357 -179q-190 0 -299 105q-153 143 -153 436zM250 530q0 -143 35 -233q8 -23 20 -46.5t39 -59t74 -58t108 -22.5q137 0 213 111.5t76 312.5 q0 168 -51 274q-74 147 -225 147q-61 0 -115 -26q-174 -87 -174 -400zM326 1516h225l80 -273h-144z" />
<glyph unicode="&#xf3;" d="M78 514q0 317 158 473q68 66 173 89.5t189 13t139 -36.5q115 -51 182.5 -184.5t67.5 -321.5q0 -240 -100 -395q-104 -178 -357 -179q-190 0 -299 105q-153 143 -153 436zM250 530q0 -143 35 -233q8 -23 20 -46.5t39 -59t74 -58t108 -22.5q137 0 213 111.5t76 312.5 q0 168 -51 274q-74 147 -225 147q-61 0 -115 -26q-174 -87 -174 -400zM461 1241l86 275h225l-168 -275h-143z" />
<glyph unicode="&#xf4;" d="M78 514q0 317 158 473q68 66 173 89.5t189 13t139 -36.5q115 -51 182.5 -184.5t67.5 -321.5q0 -240 -100 -395q-104 -178 -357 -179q-190 0 -299 105q-153 143 -153 436zM250 530q0 -143 35 -233q8 -23 20 -46.5t39 -59t74 -58t108 -22.5q137 0 213 111.5t76 312.5 q0 168 -51 274q-74 147 -225 147q-61 0 -115 -26q-174 -87 -174 -400zM332 1243l102 279h219l97 -279h-115l-92 166l-92 -166h-119z" />
<glyph unicode="&#xf5;" d="M78 514q0 317 158 473q68 66 173 89.5t189 13t139 -36.5q115 -51 182.5 -184.5t67.5 -321.5q0 -240 -100 -395q-104 -178 -357 -179q-190 0 -299 105q-153 143 -153 436zM229 1272q8 115 19 147q31 106 119 107q57 0 127 -45q10 -6 73 -49l78 -54q45 -29 64 -28 q49 0 57 143h92q-4 -152 -43 -205q-37 -49 -98 -49q-49 0 -107 35l-172 115q-33 23 -55.5 22.5t-35.5 -21t-16 -45t-5 -73.5h-97zM250 530q0 -143 35 -233q8 -23 20 -46.5t39 -59t74 -58t108 -22.5q137 0 213 111.5t76 312.5q0 168 -51 274q-74 147 -225 147q-61 0 -115 -26 q-174 -87 -174 -400z" />
<glyph unicode="&#xf6;" d="M78 514q0 317 158 473q68 66 173 89.5t189 13t139 -36.5q115 -51 182.5 -184.5t67.5 -321.5q0 -240 -100 -395q-104 -178 -357 -179q-190 0 -299 105q-153 143 -153 436zM250 530q0 -143 35 -233q8 -23 20 -46.5t39 -59t74 -58t108 -22.5q137 0 213 111.5t76 312.5 q0 168 -51 274q-74 147 -225 147q-61 0 -115 -26q-174 -87 -174 -400zM291 1300v168h184v-168h-184zM580 1300v168h184v-168h-184z" />
<glyph unicode="&#xf7;" horiz-adv-x="1366" d="M0 535v120h1364v-120h-1364zM592 328q0 37 26.5 65.5t67.5 28.5t67.5 -27.5t26.5 -66.5q0 -37 -25.5 -64.5t-68.5 -27.5q-41 0 -67.5 26.5t-26.5 65.5zM592 860q0 37 26.5 65.5t67.5 28.5t67.5 -27.5t26.5 -66.5q0 -37 -25.5 -64.5t-68.5 -27.5q-41 0 -67.5 26.5 t-26.5 65.5z" />
<glyph unicode="&#xf8;" d="M41 -211l174 297q-139 152 -139 408q0 238 100 405q117 193 361 193q106 0 204 -41l107 188h162l-152 -272q37 -45 57.5 -79t46 -124t25.5 -203q0 -197 -67 -342q-55 -119 -145.5 -183.5t-244.5 -64.5q-88 0 -200 37l-123 -219h-166zM250 504q0 -152 55 -275l377 682 q-68 43 -137 43q-37 0 -62 -8q-111 -29 -172 -142.5t-61 -299.5zM391 141q74 -33 131 -32q68 0 121 30q92 47 137 178q35 102 35 242q0 137 -51 256z" />
<glyph unicode="&#xf9;" horiz-adv-x="1110" d="M10 938v129h322v-719q4 -143 71 -196q49 -39 125 -39t125 45t69.5 128t28 147.5t7.5 156.5v348h-152v129h322v-938h151v-129h-297l-10 147q-16 -31 -30.5 -51t-49.5 -53t-90 -50.5t-129 -17.5q-123 0 -205 66q-49 39 -73.5 99.5t-28.5 99.5t-4 100v598h-152zM334 1516 h225l80 -273h-143z" />
<glyph unicode="&#xfa;" horiz-adv-x="1110" d="M10 938v129h322v-719q4 -143 71 -196q49 -39 125 -39t125 45t69.5 128t28 147.5t7.5 156.5v348h-152v129h322v-938h151v-129h-297l-10 147q-16 -31 -30.5 -51t-49.5 -53t-90 -50.5t-129 -17.5q-123 0 -205 66q-49 39 -73.5 99.5t-28.5 99.5t-4 100v598h-152zM469 1241 l86 275h225l-168 -275h-143z" />
<glyph unicode="&#xfb;" horiz-adv-x="1110" d="M10 938v129h322v-719q4 -143 71 -196q49 -39 125 -39t125 45t69.5 128t28 147.5t7.5 156.5v348h-152v129h322v-938h151v-129h-297l-10 147q-16 -31 -30.5 -51t-49.5 -53t-90 -50.5t-129 -17.5q-123 0 -205 66q-49 39 -73.5 99.5t-28.5 99.5t-4 100v598h-152zM340 1243 l102 279h220l96 -279h-115l-92 166l-92 -166h-119z" />
<glyph unicode="&#xfc;" horiz-adv-x="1110" d="M10 938v129h322v-719q4 -143 71 -196q49 -39 125 -39t125 45t69.5 128t28 147.5t7.5 156.5v348h-152v129h322v-938h151v-129h-297l-10 147q-16 -31 -30.5 -51t-49.5 -53t-90 -50.5t-129 -17.5q-123 0 -205 66q-49 39 -73.5 99.5t-28.5 99.5t-4 100v598h-152zM301 1303 v167h184v-167h-184zM590 1303v167h184v-167h-184z" />
<glyph unicode="&#xfd;" d="M4 938v129h428v-129h-137l250 -741l246 741h-140v129h410v-129h-107l-374 -1067q-31 -86 -53.5 -134t-60.5 -98.5t-93.5 -73t-130.5 -22.5q-61 0 -172 25v151q78 -39 139 -38q55 0 95 19t68.5 67.5t45 90.5t41.5 124l-346 956h-109zM449 1241l86 275h225l-168 -275h-143z " />
<glyph unicode="&#xfe;" horiz-adv-x="1150" d="M41 -287h152v1604h-152v129h313v-522q123 168 293 168q160 0 275 -115q150 -150 149 -445q0 -270 -121 -414.5t-293 -144.5q-178 0 -292 142v-402h151v-129h-475v129zM360 522q0 -135 39 -235q70 -174 228 -174q74 0 133 43q139 96 139 385q0 174 -69.5 288.5 t-200.5 114.5q-137 0 -203 -122t-66 -300z" />
<glyph unicode="&#xff;" d="M4 938v129h428v-129h-137l250 -741l246 741h-140v129h410v-129h-107l-374 -1067q-31 -86 -53.5 -134t-60.5 -98.5t-93.5 -73t-130.5 -22.5q-61 0 -172 25v151q78 -39 139 -38q55 0 95 19t68.5 67.5t45 90.5t41.5 124l-346 956h-109zM299 1296v168h184v-168h-184z M588 1296v168h184v-168h-184z" />
<glyph unicode="&#x152;" horiz-adv-x="1835" d="M90 719q0 379 135 563q80 113 193.5 146.5t296.5 33.5q117 0 350 -16h653v-453h-155v324h-504v-477h479v-135h-479v-576h504v365h155v-494h-712l-332 -10q-76 0 -121 3t-109.5 17.5t-107.5 42t-89 80.5t-79 131q-78 179 -78 455zM264 719q0 -387 152 -522 q39 -35 90 -52.5t84 -19.5t92 -2q100 0 203 6v1188q-119 4 -187 4q-150 0 -232.5 -37t-133.5 -154q-68 -155 -68 -411z" />
<glyph unicode="&#x153;" horiz-adv-x="1792" d="M78 520q0 238 98 393q113 178 354 179q86 0 153 -20.5t109 -59.5t61 -63.5t40 -61.5q29 41 50.5 65.5t67.5 62.5t110.5 57.5t146.5 19.5q201 0 327.5 -139.5t124.5 -426.5h-725q0 -240 99 -340q80 -76 186 -75q113 0 182 79q45 51 66 146h172q-10 -63 -31 -117 q-49 -129 -156.5 -188.5t-230.5 -59.5q-254 0 -389 219q-63 -106 -125 -147q-100 -68 -248 -68q-240 0 -356 189q-86 143 -86 356zM250 539q0 -45 3 -85t18.5 -107.5t42 -115t83 -84t133.5 -36.5q92 0 156 49t92.5 125.5t38.5 138t10 119.5q0 174 -77.5 293.5t-214.5 119.5 q-109 0 -185 -84q-100 -106 -100 -333zM1001 651h541q-10 78 -24 117q-27 74 -90.5 132t-157.5 58q-141 0 -219 -133q-40 -70 -50 -174z" />
<glyph unicode="&#x178;" horiz-adv-x="1110" d="M-8 1317v129h442v-129h-153l280 -643l289 643h-123v129h395v-129h-104l-381 -809v-379h154v-129h-478v129h154v391l-369 797h-106zM315 1647v165h185v-165h-185zM604 1647v165h187v-165h-187z" />
<glyph unicode="&#x2c6;" horiz-adv-x="598" d="M90 1243l103 279h219l96 -279h-115l-92 166l-92 -166h-119z" />
<glyph unicode="&#x2dc;" horiz-adv-x="598" d="M-14 1272q8 115 18 147q31 106 119 107q57 0 127 -45q10 -6 74 -49l77 -54q45 -29 64 -28q49 0 57 143h92q-4 -152 -43 -205q-37 -49 -98 -49q-49 0 -106 35l-172 115q-35 23 -56 22q-23 0 -36 -20.5t-16 -45t-5 -73.5h-96z" />
<glyph unicode="&#x2013;" horiz-adv-x="1193" d="M70 502v162h1054v-162h-1054z" />
<glyph unicode="&#x2014;" horiz-adv-x="1492" d="M70 502v162h1351v-162h-1351z" />
<glyph unicode="&#x2018;" horiz-adv-x="512" d="M66 995l237 451h148l-138 -451h-247z" />
<glyph unicode="&#x2019;" horiz-adv-x="512" d="M45 995l135 453h248l-235 -453h-148z" />
<glyph unicode="&#x201a;" horiz-adv-x="512" d="M53 -242l140 453h243l-237 -453h-146z" />
<glyph unicode="&#x201c;" horiz-adv-x="768" d="M45 1446h143l242 -449h-248zM338 1446h246l137 -449h-148z" />
<glyph unicode="&#x201d;" horiz-adv-x="768" d="M47 995l135 451h246l-235 -451h-146zM342 995l236 451h145l-135 -451h-246z" />
<glyph unicode="&#x201e;" horiz-adv-x="768" d="M29 -242l139 453h246l-240 -453h-145zM322 -242l235 453h148l-138 -453h-245z" />
<glyph unicode="&#x2022;" horiz-adv-x="681" d="M96 723q0 96 70 170t178 74q104 0 173 -71t69 -173t-67.5 -173t-172.5 -71q-109 0 -179.5 72t-70.5 172z" />
<glyph unicode="&#x2026;" horiz-adv-x="2048" d="M231 0v217h220v-217h-220zM913 0v217h220v-217h-220zM1595 0v217h220v-217h-220z" />
<glyph unicode="&#x2039;" horiz-adv-x="425" d="M41 588l174 350h139l-129 -350l129 -348h-139z" />
<glyph unicode="&#x203a;" horiz-adv-x="425" d="M63 238l130 337l-130 349h140l176 -349l-176 -337h-140z" />
<glyph unicode="&#x20ac;" horiz-adv-x="1251" d="M23 551v127h141v22q0 39 4 121h-145v127h159q49 279 187 406q131 123 321 123q131 0 218 -48.5t124 -115.5l4 133h135v-412h-157q-10 66 -25 103q-33 94 -106.5 152.5t-173.5 58.5q-82 0 -138 -31q-125 -61 -184 -254q-16 -49 -27 -115h478v-127h-494q-4 -53 -4 -123v-20 h498v-127h-490q14 -145 60 -244q92 -207 290 -207q111 0 189 64q92 70 121 215h166q-29 -168 -123 -270q-125 -137 -342 -138q-258 0 -385 160t-154 420h-147z" />
<glyph unicode="&#x2122;" horiz-adv-x="1579" d="M45 1272q6 100 8 174q49 0 145.5 -1t143.5 -1t142.5 1t144.5 1q2 -74 8 -174h-62q-27 80 -49 94t-120 14v-454q0 -66 12 -78t80 -19v-63q-129 4 -158 4q-27 0 -158 -4v63q70 6 82 18.5t12 78.5v454q-98 0 -120.5 -14t-49.5 -94h-61zM696 766v63q51 8 62.5 22.5t13.5 80.5 v428q-16 20 -65 24v64q66 -4 98 -4q31 0 92 4l207 -508l213 506q94 0 192 2v-64q-57 -2 -68 -20t-11 -92v-340q0 -74 8 -84q8 -12 59 -19v-63q-82 4 -131 4q-41 0 -127 -4v63q29 2 40 5.5t19.5 12.5t8.5 27v58v315l-203 -479h-45l-203 485v-321q0 -66 12.5 -82t69.5 -21v-63 q-115 2 -242 0z" />
<glyph unicode="&#xe000;" horiz-adv-x="1065" d="M0 1065h1065v-1065h-1065v1065z" />
<glyph unicode="&#xfb01;" horiz-adv-x="1110" d="M49 0v129h152v809h-152v129h152v68q2 74 4 106.5t18.5 80.5t46.5 81q72 72 222 72q31 0 124 -13v-131q-78 12 -94 12q-70 0 -112 -43q-25 -29 -31 -60.5t-6 -102.5v-70h553v-938h151v-129h-463v129h142v809h-383v-809h135v-129h-459zM727 1280v166h199v-166h-199z" />
<glyph unicode="&#xfb02;" horiz-adv-x="1110" d="M49 0v129h152v809h-152v129h152v68q2 74 4 107.5t17.5 80.5t47.5 80q72 72 222 72q35 0 96 -9v-129q-49 6 -68 6q-70 0 -110 -43q-37 -41 -37 -163v-70h202v-129h-202v-809h137v-129h-461zM616 0v129h136v1188h-97v129h269v-1317h149v-129h-457z" />
<glyph unicode="&#xfb03;" horiz-adv-x="1751" d="M1241 0v129h158v809h-158v129h328v-938h151v-129h-479zM1370 1280v166h199v-166h-199zM647 0v129h152v809h-152v129h152v68q2 74 4 107.5t17.5 80.5t47.5 80q72 72 219 72q47 0 142 -15v-133q-70 16 -107 16q-61 0 -98 -28.5t-45 -64.5t-8 -113v-70h202v-129h-202v-809 h153v-129h-477zM49 0v129h152v809h-152v129h152v68q2 74 4 107.5t17.5 80.5t47.5 80q72 72 219 72q47 0 142 -15v-133q-70 16 -107 16q-61 0 -98 -28.5t-45 -64.5t-8 -113v-70h202v-129h-202v-809h153v-129h-477z" />
<glyph unicode="&#xfb04;" horiz-adv-x="1751" d="M1243 0v129h150v1188h-150v129h322v-1317h149v-129h-471zM647 0v129h152v809h-152v129h152v68q2 74 4 107.5t17.5 80.5t47.5 80q72 72 219 72q47 0 142 -15v-133q-70 16 -107 16q-61 0 -98 -28.5t-45 -64.5t-8 -113v-70h202v-129h-202v-809h153v-129h-477zM49 0v129h152 v809h-152v129h152v68q2 74 4 107.5t17.5 80.5t47.5 80q72 72 219 72q47 0 142 -15v-133q-70 16 -107 16q-61 0 -98 -28.5t-45 -64.5t-8 -113v-70h202v-129h-202v-809h153v-129h-477z" />
</font>
</defs>
</svg>
